<svg width="36" height="36" viewBox="0 0 36 36" fill="none" xmlns="http://www.w3.org/2000/svg">
<g clip-path="url(#clip0_51_850)">
<path d="M18 0C8.05909 0 0 8.05909 0 18C0 27.0245 6.64773 34.4757 15.3098 35.7775V22.7708H10.8565V18.0393H15.3098V14.8909C15.3098 9.67827 17.8495 7.38982 22.1817 7.38982C24.2566 7.38982 25.3538 7.54364 25.8734 7.614V11.7442H22.9181C21.0788 11.7442 20.4365 13.4877 20.4365 15.453V18.0393H25.8267L25.0953 22.7708H20.4365V35.8159C29.2222 34.6238 36 27.1121 36 18C36 8.05909 27.9409 0 18 0Z" fill="black"/>
</g>
<defs>
<clipPath id="clip0_51_850">
<rect width="36" height="36" fill="white"/>
</clipPath>
</defs>
</svg>
