<svg width="36" height="36" viewBox="0 0 36 36" fill="none" xmlns="http://www.w3.org/2000/svg">
<g clip-path="url(#clip0_101_1893)">
<path d="M31.2188 3.50863C30.3258 2.68597 26.7117 0.0633154 18.6539 0.0281591C18.6539 0.0281591 9.15469 -0.541372 4.52813 3.7055C1.95469 6.27894 1.04766 10.0547 0.949222 14.7305C0.850785 19.4063 0.731254 28.1672 9.17578 30.5438H9.18282L9.17578 34.1719C9.17578 34.1719 9.11953 35.6414 10.0898 35.9368C11.257 36.3024 11.9461 35.1844 13.0641 33.9821C13.6758 33.3211 14.5195 32.3508 15.1594 31.6125C20.9391 32.0977 25.3758 30.9868 25.882 30.825C27.0492 30.4453 33.6516 29.6016 34.7203 20.8407C35.8313 11.7985 34.1859 6.0891 31.2188 3.50863ZM32.1961 20.1797C31.2891 27.4922 25.9383 27.9563 24.9539 28.2727C24.532 28.4063 20.6297 29.3766 15.7289 29.0602C15.7289 29.0602 12.0727 33.4688 10.9336 34.6149C10.5609 34.9875 10.1531 34.9524 10.1602 34.2141C10.1602 33.7289 10.1883 28.1883 10.1883 28.1883C10.1813 28.1883 10.1813 28.1883 10.1883 28.1883C3.03047 26.2055 3.45235 18.7453 3.52969 14.843C3.60704 10.9407 4.34532 7.74144 6.525 5.58988C10.4414 2.0391 18.5063 2.56644 18.5063 2.56644C25.3195 2.59457 28.582 4.64769 29.3414 5.33675C31.8516 7.48832 33.1313 12.6352 32.1961 20.1797ZM22.4227 14.4985C22.4508 15.1032 21.5438 15.1453 21.5156 14.5407C21.4383 12.9938 20.7141 12.2414 19.2234 12.1571C18.6188 12.1219 18.675 11.2149 19.2727 11.25C21.2344 11.3555 22.3242 12.4805 22.4227 14.4985ZM23.85 15.293C23.9203 12.3118 22.057 9.97738 18.5203 9.71722C17.9227 9.67503 17.9859 8.768 18.5836 8.81019C22.6617 9.1055 24.8344 11.911 24.757 15.3141C24.75 15.9188 23.8359 15.8907 23.85 15.293ZM27.1547 16.2352C27.1617 16.8399 26.2477 16.8469 26.2477 16.2422C26.2055 10.5118 22.3875 7.38988 17.7539 7.35472C17.1563 7.34769 17.1563 6.44769 17.7539 6.44769C22.9359 6.48285 27.1055 10.0618 27.1547 16.2352ZM26.3602 23.1328V23.1469C25.6008 24.4828 24.1805 25.9594 22.718 25.4883L22.7039 25.4672C21.2203 25.0524 17.7258 23.2524 15.518 21.4946C14.3789 20.5946 13.3383 19.5328 12.5367 18.5133C11.8125 17.6063 11.0813 16.5305 10.3711 15.2368C8.87344 12.5297 8.54297 11.3203 8.54297 11.3203C8.07188 9.85785 9.54141 8.43753 10.8844 7.67816H10.8984C11.5453 7.34066 12.1641 7.45316 12.5789 7.95238C12.5789 7.95238 13.4508 8.993 13.8234 9.50628C14.175 9.98441 14.6461 10.7508 14.8922 11.1797C15.3211 11.9461 15.0539 12.7266 14.632 13.05L13.7883 13.725C13.3594 14.0696 13.4156 14.7094 13.4156 14.7094C13.4156 14.7094 14.6672 19.4414 19.343 20.6368C19.343 20.6368 19.9828 20.693 20.3273 20.2641L21.0023 19.4203C21.3258 18.9985 22.1063 18.7313 22.8727 19.1602C23.9063 19.7438 25.2211 20.6508 26.093 21.4735C26.5852 21.8743 26.6977 22.486 26.3602 23.1328Z" fill="black"/>
</g>
<defs>
<clipPath id="clip0_101_1893">
<rect width="36" height="36" fill="white"/>
</clipPath>
</defs>
</svg>
