<svg width="20" height="16" viewBox="0 0 20 16" fill="none" xmlns="http://www.w3.org/2000/svg">
<path d="M18.9998 3.99979H8.99979V0.999787C8.99974 0.802037 8.94107 0.608738 8.83119 0.444329C8.7213 0.279919 8.56514 0.151779 8.38244 0.0761092C8.19974 0.000439122 7.99871 -0.0193641 7.80476 0.0192034C7.6108 0.057771 7.43264 0.152978 7.29279 0.292787L0.292786 7.29279C0.105315 7.48031 0 7.73462 0 7.99979C0 8.26495 0.105315 8.51926 0.292786 8.70679L7.29279 15.7068C7.43264 15.8466 7.6108 15.9418 7.80476 15.9804C7.99871 16.0189 8.19974 15.9991 8.38244 15.9235C8.56514 15.8478 8.7213 15.7197 8.83119 15.5552C8.94107 15.3908 8.99974 15.1975 8.99979 14.9998V11.9998H18.9998C19.265 11.9998 19.5194 11.8944 19.7069 11.7069C19.8944 11.5194 19.9998 11.265 19.9998 10.9998V4.99979C19.9998 4.73457 19.8944 4.48022 19.7069 4.29268C19.5194 4.10514 19.265 3.99979 18.9998 3.99979Z" fill="black"/>
</svg>
