<svg width="41" height="36" viewBox="0 0 41 36" fill="none" xmlns="http://www.w3.org/2000/svg">
<path d="M40.2271 22.3231L34.6026 3.59825H21.7642V1.27511C21.7642 0.646288 21.1354 0 20.4891 0C19.8603 0 19.214 0.628821 19.214 1.27511V3.61572H6.37555L0.751092 22.3231H0.628821H0C0 26.5677 3.44105 30.0262 7.70306 30.0262C11.9651 30.0262 15.4061 26.5852 15.4061 22.3231H14.6725H14.5502L9.24017 4.76856H19.3188V32.0873H9.34498V36H10.6201H20.4891H30.3581H31.6332V32.0873H21.6594V4.76856H31.738L26.4279 22.3231H26.3057H25.5721C25.5721 26.5677 29.0131 30.0262 33.2751 30.0262C37.5371 30.0262 40.9782 26.5852 40.9782 22.3231H40.3493H40.2271ZM12.8035 22.3231H2.60262L7.65066 5.29258L12.8035 22.3231ZM28.1747 22.3231L33.3275 5.29258L38.3755 22.3231H28.1747Z" fill="black"/>
</svg>
